<svg viewBox="0 0 100 45" xmlns="http://www.w3.org/2000/svg">
  <!-- Cardiff University - simplified shield with dragon -->
  <defs>
    <linearGradient id="cardiffGrad" x1="0" y1="0" x2="0" y2="1">
      <stop offset="0%" stop-color="#d4141e"/>
      <stop offset="100%" stop-color="#a80e16"/>
    </linearGradient>
  </defs>
  <!-- Shield shape -->
  <path d="M10 5 L10 28 Q10 40 50 42 Q90 40 90 28 L90 5 L75 10 L50 5 L25 10 Z" fill="url(#cardiffGrad)"/>
  <!-- Welsh dragon silhouette -->
  <path d="M70 18 Q73 15 76 17 Q78 19 76 22 Q74 24 72 23 Q70 20 71 18Z" fill="white" opacity="0.9"/>
  <path d="M71 23 Q73 25 75 26 L74 28 L72 27 Q70 26 69 24Z" fill="white" opacity="0.8"/>
  <path d="M72 27 Q74 29 76 28 L75 30 L73 29Z" fill="white" opacity="0.7"/>
  <!-- Text -->
  <text x="50" y="18" text-anchor="middle" fill="white" font-size="9" font-family="Georgia, serif" font-weight="bold" letter-spacing="1">CARDIFF</text>
  <text x="50" y="26" text-anchor="middle" fill="white" font-size="6" font-family="Georgia, serif" letter-spacing="0.5">UNIVERSITY</text>
  <text x="50" y="36" text-anchor="middle" fill="white" font-size="7" font-family="Georgia, serif" font-weight="bold" letter-spacing="0.5">PRIFYSGOL</text>
  <text x="50" y="44" text-anchor="middle" fill="white" font-size="8" font-family="Georgia, serif" font-weight="bold" letter-spacing="1">CAERDYDD</text>
</svg>
