<svg viewBox="0 0 100 40" xmlns="http://www.w3.org/2000/svg">
  <!-- Crown with Q - Queen Mary University of London -->
  <defs>
    <linearGradient id="qmulGrad" x1="0" y1="0" x2="1" y2="1">
      <stop offset="0%" stop-color="#7b2d8e"/>
      <stop offset="100%" stop-color="#5a1d6b"/>
    </linearGradient>
  </defs>
  <!-- Fleur-de-lis on top -->
  <path d="M50 2 L52 6 L50 5 L48 6 Z" fill="white" opacity="0.9"/>
  <path d="M47 5 Q46 7 47 8 Q48 7 49 6 Z" fill="white" opacity="0.9"/>
  <path d="M53 5 Q54 7 53 8 Q52 7 51 6 Z" fill="white" opacity="0.9"/>
  <!-- Crown body with Q in center -->
  <path d="M15 35 Q15 12 25 10 Q30 18 35 15 Q40 10 50 8 Q60 10 65 15 Q70 18 75 10 Q85 12 85 35 Z" fill="url(#qmulGrad)" stroke="white" stroke-width="1.5"/>
  <!-- Q letter inside crown -->
  <text x="50" y="30" text-anchor="middle" fill="white" font-size="18" font-family="Georgia, serif" font-weight="bold">Q</text>
  <!-- Base bar -->
  <rect x="25" y="35" width="50" height="3" rx="1" fill="white" opacity="0.9"/>
  <!-- Scroll curls at bottom -->
  <path d="M25 38 Q22 40 24 42 Q26 40 25 38" fill="white" opacity="0.7"/>
  <path d="M75 38 Q78 40 76 42 Q74 40 75 38" fill="white" opacity="0.7"/>
</svg>
